<svg width="872"
     height="582"
     viewBox="0 0 872 582"
     fill="none"
     xmlns="http://www.w3.org/2000/svg">
  <path d="M78.4 576.1L58.4 345.7L2.4 351.3L0 310.1L204.4 304.5L203.2 331.3L147.2 336.9L122.4 572.1L78.4 576.1Z"
        fill="#D937BE" />
  <path d="M311.206 580.1C296.806 580.1 283.34 577.167 270.806 571.3C258.54 565.433 248.273 555.7 240.006 542.1C231.74 528.5 226.273 510.367 223.606 487.7L204.406 310.5L299.606 304.5C296.406 343.167 293.74 374.767 291.606 399.3C289.473 423.833 287.873 443.167 286.806 457.3C285.74 471.167 284.94 481.3 284.406 487.7C283.873 493.833 283.473 497.833 283.206 499.7C283.206 501.567 283.206 502.767 283.206 503.3C283.206 519.833 287.073 531.567 294.806 538.5C302.806 545.433 313.473 548.9 326.806 548.9C334.273 548.9 341.606 547.433 348.806 544.5C356.273 541.567 362.406 536.1 367.206 528.1C372.273 520.1 374.94 508.767 375.206 494.1L378.806 308.5L418.806 306.5L406.806 494.5C405.74 512.367 402.14 527.033 396.006 538.5C389.873 549.7 382.14 558.367 372.806 564.5C363.473 570.367 353.473 574.367 342.806 576.5C332.14 578.9 321.606 580.1 311.206 580.1Z"
        fill="#D937BE" />
  <path d="M620.522 576.5L490.922 362.1H487.722L488.922 570.5L448.922 572.5L459.722 310.5L556.522 304.5L626.522 504.1H629.722L633.722 308.5L673.722 306.5L656.522 570.5L620.522 576.5Z"
        fill="#D937BE" />
  <path d="M713.875 574.1L695.075 310.5L871.475 304.9L870.275 331.7L785.875 341.7L775.475 424.5L860.675 423.7L862.675 459.7L772.275 452.9L761.475 542.1L871.875 529.3L870.275 570.5L713.875 574.1Z"
        fill="#D937BE" />
  <mask id="path-2-inside-1_5_18"
        fill="white">
    <path d="M203.863 316.5H0.372816L0 310.1L204.4 304.5L203.863 316.5Z" />
    <path
          d="M418.168 316.5H378.651L378.806 308.5L418.806 306.5L418.168 316.5Z" />
    <path
          d="M298.611 316.5H205.056L204.406 310.5L299.606 304.5C299.269 308.579 298.937 312.579 298.611 316.5Z" />
    <path d="M560.73 316.5H459.475L459.722 310.5L556.522 304.5L560.73 316.5Z" />
    <path d="M673.07 316.5H633.558L633.722 308.5L673.722 306.5L673.07 316.5Z" />
    <path
          d="M870.956 316.5H695.503L695.075 310.5L871.475 304.9L870.956 316.5Z" />
  </mask>
  <path d="M203.863 316.5H0.372816L0 310.1L204.4 304.5L203.863 316.5Z"
        fill="black"
        style="mix-blend-mode:color" />
  <path d="M418.168 316.5H378.651L378.806 308.5L418.806 306.5L418.168 316.5Z"
        fill="black"
        style="mix-blend-mode:color" />
  <path d="M298.611 316.5H205.056L204.406 310.5L299.606 304.5C299.269 308.579 298.937 312.579 298.611 316.5Z"
        fill="black"
        style="mix-blend-mode:color" />
  <path d="M560.73 316.5H459.475L459.722 310.5L556.522 304.5L560.73 316.5Z"
        fill="black"
        style="mix-blend-mode:color" />
  <path d="M673.07 316.5H633.558L633.722 308.5L673.722 306.5L673.07 316.5Z"
        fill="black"
        style="mix-blend-mode:color" />
  <path d="M870.956 316.5H695.503L695.075 310.5L871.475 304.9L870.956 316.5Z"
        fill="black"
        style="mix-blend-mode:color" />
  <path d="M203.863 316.5H0.372816L0 310.1L204.4 304.5L203.863 316.5Z"
        stroke="black"
        stroke-width="20"
        mask="url(#path-2-inside-1_5_18)" />
  <path d="M418.168 316.5H378.651L378.806 308.5L418.806 306.5L418.168 316.5Z"
        stroke="black"
        stroke-width="20"
        mask="url(#path-2-inside-1_5_18)" />
  <path d="M298.611 316.5H205.056L204.406 310.5L299.606 304.5C299.269 308.579 298.937 312.579 298.611 316.5Z"
        stroke="black"
        stroke-width="20"
        mask="url(#path-2-inside-1_5_18)" />
  <path d="M560.73 316.5H459.475L459.722 310.5L556.522 304.5L560.73 316.5Z"
        stroke="black"
        stroke-width="20"
        mask="url(#path-2-inside-1_5_18)" />
  <path d="M673.07 316.5H633.558L633.722 308.5L673.722 306.5L673.07 316.5Z"
        stroke="black"
        stroke-width="20"
        mask="url(#path-2-inside-1_5_18)" />
  <path d="M870.956 316.5H695.503L695.075 310.5L871.475 304.9L870.956 316.5Z"
        stroke="black"
        stroke-width="20"
        mask="url(#path-2-inside-1_5_18)" />
  <path d="M114.832 301.5L8 304.5L312.683 12.5L443.5 47.5L416 301.7L381 303.5L356.166 229.5L195.758 214.071L114.832 301.5ZM352.611 210.403L323.475 66.5695L318.724 65.7398L218.723 186.191L352.611 210.403Z"
        fill="url(#paint0_linear_5_18)"
        fill-opacity="0.27"
        stroke="url(#paint1_linear_5_18)"
        stroke-width="6" />
  <path d="M518.297 74.8075C499.184 74.6959 482.619 70.9992 468.602 63.7172C455.091 56.1715 448.381 47.3321 448.474 37.199C448.567 27.066 455.437 18.4391 469.083 11.3186C483.235 3.93429 499.867 0.297911 518.98 0.409444C538.093 0.520977 554.405 4.3496 567.916 11.8953C581.934 19.1773 588.896 27.8848 588.803 38.0179C588.71 48.151 581.587 56.9096 567.436 64.2939C553.79 71.4145 537.41 74.919 518.297 74.8075ZM460 307.982L448.474 103.482L588.803 91.9824L489.5 305.982L460 307.982Z"
        fill="url(#paint2_linear_5_18)" />
  <defs>
    <linearGradient id="paint0_linear_5_18"
                    x1="231"
                    y1="12.5"
                    x2="231"
                    y2="303.5"
                    gradientUnits="userSpaceOnUse">
      <stop stop-color="#D937BE" />
      <stop offset="0.470887"
            stop-color="#F97535" />
      <stop offset="1" />
    </linearGradient>
    <linearGradient id="paint1_linear_5_18"
                    x1="231"
                    y1="12.5"
                    x2="231"
                    y2="303.5"
                    gradientUnits="userSpaceOnUse">
      <stop stop-color="#D937BE" />
      <stop offset="1" />
    </linearGradient>
    <linearGradient id="paint2_linear_5_18"
                    x1="526.524"
                    y1="-1.54653"
                    x2="524.744"
                    y2="303.451"
                    gradientUnits="userSpaceOnUse">
      <stop stop-color="#F97535" />
      <stop offset="1"
            stop-color="#D937BE" />
    </linearGradient>
  </defs>
</svg>