<?xml version="1.0" encoding="utf-8"?>
<svg viewBox="482.5999755859375 48.5 95.9000244140625 99.60003662109375" width="95.9000244140625" height="99.60003662109375" xmlns="http://www.w3.org/2000/svg"><g transform="matrix(1, 0, 0, 1, 0, 0)">
		<g>
			<path class="st4" d="M511.9,48.5L511.9,48.5c13.8,0,25.1,11.3,25.1,25.1V82h-3.3v-7.7c0-12-9.8-21.9-21.9-21.9l0,0&#10;&#9;&#9;&#9;&#9;c-12,0-21.9,9.8-21.9,21.9V82h-3.3v-8.4C486.8,59.8,498.1,48.5,511.9,48.5L511.9,48.5z M485.4,142.4h5.6c0-2,6.8-3.6,16.1-4.1v-7&#10;&#9;&#9;&#9;&#9;c-11.5-2.3-20.3-12.5-20.3-24.7V88h3.3v18c0,12,9.8,21.9,21.9,21.9l0,0c12,0,21.9-9.8,21.9-21.9V88h3.3v18.6&#10;&#9;&#9;&#9;&#9;c0,12-8.5,22.1-19.8,24.5v7.1c9.2,0.5,16,2.1,16,4.1h5.6c1.5,0,2.8,1.3,2.8,2.8v0.2c0,1.6-1.2,2.8-2.8,2.8h-53.6&#10;&#9;&#9;&#9;&#9;c-1.5,0-2.8-1.3-2.8-2.8v-0.2C482.6,143.6,483.9,142.4,485.4,142.4z" style="fill-rule: evenodd; clip-rule: evenodd; fill: rgb(204, 204, 204); opacity: 1;"/>
			<path class="st4" d="M559,77.9c5.3,0,9.7,3.8,10.6,8.9h-21.2C549.3,81.7,553.7,77.9,559,77.9L559,77.9z M569.6,90.5&#10;&#9;&#9;&#9;&#9;c-0.9,5-5.3,8.9-10.6,8.9c-5.3,0-9.7-3.8-10.6-8.9H569.6z" style="fill-rule: evenodd; clip-rule: evenodd; fill: rgb(204, 204, 204); opacity: 1;"/>
			<path class="st4" d="M563.1,101.2v29.4c0,3.9-1.8,7.1-4.1,7.1l0,0c-2.2,0-4.1-3.2-4.1-7.1v-29.4H563.1z" style="fill-rule: evenodd; clip-rule: evenodd; fill: rgb(204, 204, 204); opacity: 1;"/>
		</g>
		<g>
			<path class="st4" d="M511.8,58.6L511.8,58.6c8.2,0,14.8,6.7,14.8,14.8v31.9c0,8.2-6.7,14.8-14.8,14.8h0&#10;&#9;&#9;&#9;&#9;c-8.2,0-14.8-6.7-14.8-14.8V73.4C497,65.2,503.6,58.6,511.8,58.6z" style="fill-rule: evenodd; clip-rule: evenodd; fill: rgb(204, 204, 204); opacity: 1;"/>
			<g>
				<path class="st3" d="M540.3,64c-0.6,0.6-0.7,1.5-0.1,2.2c0.6,0.6,1.5,0.7,2.2,0.1c4.9-4.4,10.7-6.6,16.6-6.7&#10;&#9;&#9;&#9;&#9;&#9;c5.8-0.1,11.6,2,16.8,6.3c0.7,0.5,1.6,0.5,2.2-0.2c0.5-0.7,0.5-1.6-0.2-2.2c-5.8-4.8-12.3-7.1-18.8-7&#10;&#9;&#9;&#9;&#9;&#9;C552.3,56.7,545.8,59.2,540.3,64z" style="fill: rgb(204, 204, 204); opacity: 1;"/>
				<path class="st3" d="M543.9,69c-0.6,0.6-0.6,1.6-0.1,2.2c0.6,0.6,1.6,0.6,2.2,0.1c3.6-3.4,8.1-5.2,12.6-5.2c4.4,0,9,1.6,13,5.2&#10;&#9;&#9;&#9;&#9;&#9;c0.6,0.6,1.6,0.5,2.2-0.1c0.6-0.6,0.5-1.6-0.1-2.2c-4.6-4-9.9-6-15.1-5.9C553.3,63,548.1,65.1,543.9,69z" style="fill: rgb(204, 204, 204); opacity: 1;"/>
				<path class="st3" d="M547.5,74c-0.6,0.6-0.7,1.6-0.1,2.2c0.6,0.6,1.6,0.7,2.2,0.1c2.6-2.5,5.9-3.8,9.3-3.9&#10;&#9;&#9;&#9;&#9;&#9;c3.2-0.1,6.5,1,9.6,3.5c0.7,0.5,1.6,0.4,2.2-0.2c0.5-0.7,0.4-1.6-0.2-2.2c-3.6-2.9-7.7-4.2-11.6-4.1&#10;&#9;&#9;&#9;&#9;&#9;C554.6,69.4,550.7,71,547.5,74z" style="fill: rgb(204, 204, 204); opacity: 1;"/>
			</g>
		</g>
	</g></svg>